<?xml version="1.0" encoding="utf-8"?>
<!-- Generator: Adobe Illustrator 16.0.4, SVG Export Plug-In . SVG Version: 6.00 Build 0)  -->
<!DOCTYPE svg PUBLIC "-//W3C//DTD SVG 1.1//EN" "http://www.w3.org/Graphics/SVG/1.1/DTD/svg11.dtd">
<svg version="1.1" id="Layer_1" xmlns="http://www.w3.org/2000/svg" xmlns:xlink="http://www.w3.org/1999/xlink" x="0px" y="0px"
	 width="816px" height="512px" viewBox="18.333 29.334 816 512" enable-background="new 18.333 29.334 816 512"
	 xml:space="preserve">
<g id="Layer_2" display="none">
	<rect x="0" y="-0.007" display="inline" fill="#FFFFFF" width="800" height="415.999"/>
</g>
<g id="Layer_1_1_">
	<path fill="none" d="M256.227,45.063c-0.955-6.804-6.777-12.042-13.848-12.042c-7.731,0-14,6.269-14,14.001
		c-7.731,0-14,6.269-14,14s6.269,13.999,14,13.999h26h2v-0.05c7.812-0.517,14-7.003,14-14.949
		C270.381,52.021,264.115,45.505,256.227,45.063z"/>
	<path fill="none" d="M239.381,163.336h-24c-1.104,0-2,0.895-2,2v5h9h10h9v-5C241.381,164.23,240.484,163.336,239.381,163.336z"/>
	<polygon fill="none" points="85.768,355.338 84.768,355.338 84.768,375.338 112.768,375.338 112.768,355.338 111.768,355.338 	"/>
	<path fill="none" d="M283.768,377.338c-0.585,0-1,0.393-1,1c0,0.604,0.415,1,1,1s1-0.396,1-1
		C284.768,377.728,284.353,377.338,283.768,377.338z"/>
	<circle fill="none" cx="85.768" cy="352.338" r="1"/>
	<path fill="none" d="M232.381,178.336h-10v-6h-9v11c0,1.104,0.896,2,2,2h24c1.104,0,2-0.896,2-2v-11h-9V178.336z"/>
	<path fill="none" d="M41.696,78.156l-2.815-2.819c-0.639-0.64-0.999-1.438-1.113-2.269c-1.739-0.186-4.158,0.375-7.05,3.269
		c-5.101,5.1,0,10-4,13.999c0,0,13.003,0.495,16-3.999c1.683-2.523,1.589-5.041,0.924-7.118
		C42.926,79.057,42.248,78.711,41.696,78.156z"/>
	<rect x="224.381" y="172.336" fill="none" width="6" height="4"/>
	<rect x="276.768" y="353.338" fill="none" width="14" height="22"/>
	<path fill="none" d="M70.135,30.4L49.816,50.736l2.817,2.821l20.32-20.336c0.772-0.779,0.772-2.042,0-2.82
		C72.175,29.622,70.914,29.622,70.135,30.4z"/>
	<path fill="none" d="M43.104,71.104c-0.772,0.779-0.772,2.043,0,2.821c0.777,0.781,2.04,0.781,2.817,0l4.229-4.231l-2.813-2.819
		L43.104,71.104z"/>
	<path fill="none" d="M360.436,362.338c-0.829,0-1.5,0.672-1.5,1.5v8c0,0.826,0.671,1.5,1.5,1.5s1.5-0.674,1.5-1.5v-8
		C361.936,363.01,361.261,362.338,360.436,362.338z"/>
	<circle fill="none" cx="92.768" cy="352.338" r="1"/>
	<circle fill="none" cx="89.268" cy="352.338" r="1"/>
	<ellipse fill="none" cx="296.048" cy="166.668" rx="5" ry="7"/>
	<path fill="none" d="M348.436,362.338c-0.829,0-1.5,0.672-1.5,1.5v8c0,0.826,0.671,1.5,1.5,1.5s1.5-0.674,1.5-1.5v-8
		C349.936,363.01,349.261,362.338,348.436,362.338z"/>
	<path fill="none" d="M354.436,362.338c-0.829,0-1.5,0.672-1.5,1.5v8c0,0.826,0.671,1.5,1.5,1.5s1.5-0.674,1.5-1.5v-8
		C355.936,363.01,355.261,362.338,354.436,362.338z"/>
	<path fill="none" d="M230.381,161.336h1v-0.999c0-0.553-0.447-1.001-1-1.001h-6c-0.552,0-1,0.448-1,1.001v0.999h1H230.381z"/>
	<path fill="none" d="M157.219,359.335h-7.081c-0.729,1.532-1.2,3.219-1.326,5h7.972
		C156.822,362.568,156.98,360.896,157.219,359.335z"/>
	<path fill="none" d="M159.643,351.695c-3.438,0.785-6.386,2.844-8.342,5.643h6.279C158.085,355.033,158.79,353.089,159.643,351.695
		z"/>
	<path fill="none" d="M166.043,357.335c-0.726-3.623-1.917-6-3.273-6c-1.355,0-2.554,2.377-3.272,6H166.043z"/>
	<path fill="none" d="M165.894,378.973c3.438-0.787,6.39-2.84,8.345-5.639h-6.283C167.451,375.635,166.745,377.583,165.894,378.973z
		"/>
	<path fill="none" d="M156.781,366.335h-7.971c0.126,1.779,0.598,3.467,1.326,5h7.081C156.98,369.773,156.822,368.1,156.781,366.335
		z"/>
	<path fill="none" d="M159.492,373.335c0.726,3.621,1.917,6,3.272,6c1.354,0,2.556-2.379,3.271-6H159.492z"/>
	<path fill="none" d="M168.319,359.335c0.238,1.562,0.396,3.23,0.438,5h7.969c-0.126-1.781-0.595-3.468-1.325-5H168.319z"/>
	<path fill="none" d="M168.319,371.335h7.081c0.729-1.533,1.198-3.221,1.325-5h-7.969
		C168.715,368.1,168.557,369.773,168.319,371.335z"/>
	<path fill="none" d="M170.791,298.898c0-0.164-0.003-0.328-0.017-0.486c0.766-0.535,1.426-1.201,1.941-1.961
		c-0.697,0.303-1.447,0.506-2.235,0.598c0.81-0.469,1.423-1.211,1.711-2.096c-0.752,0.438-1.584,0.75-2.471,0.92
		c-0.709-0.734-1.722-1.195-2.84-1.195c-2.146,0-3.89,1.693-3.89,3.785c0,0.295,0.028,0.584,0.102,0.859
		c-3.23-0.156-6.101-1.662-8.021-3.953c-0.335,0.562-0.526,1.211-0.526,1.902c0,1.312,0.688,2.473,1.729,3.146
		c-0.64-0.021-1.234-0.188-1.764-0.479c0,0.021,0,0.027,0,0.05c0,1.835,1.341,3.36,3.121,3.716c-0.327,0.086-0.67,0.133-1.022,0.133
		c-0.25,0-0.491-0.021-0.729-0.066c0.495,1.504,1.933,2.599,3.635,2.629c-1.331,1.018-3.009,1.619-4.831,1.619
		c-0.312,0-0.624-0.02-0.929-0.055c1.723,1.074,3.768,1.701,5.964,1.701C166.879,309.667,170.791,303.898,170.791,298.898z"/>
	<path fill="none" d="M167.034,119.44c1.666,1.271,3.979,0.855,5.167-0.927c1.188-1.783,0.8-4.257-0.866-5.527
		c-1.666-1.27-3.979-0.854-5.167,0.929C164.979,115.695,165.368,118.17,167.034,119.44z"/>
	<polygon fill="none" points="105.728,293.671 104.711,293.671 104.711,295.641 102.718,295.641 102.718,296.665 104.711,296.665 
		104.711,298.635 105.728,298.635 105.728,296.665 107.689,296.665 107.689,295.641 105.728,295.641 	"/>
	<circle fill="none" cx="163.382" cy="173.668" r="6"/>
	<ellipse fill="none" cx="222.335" cy="361" rx="8.677" ry="8.744"/>
	<path fill="none" d="M101.23,302.893c-1.634-1.162-2.245-1.711-1.192-2.633c1.046-0.922,1.872-1.668,1.872-3.381
		s-1.414-2.59-1.414-2.59s1.021,0.146,1.562-0.154c0.545-0.307,0.783-0.504,0.783-0.504c-1.001,0-4.16,0-5.208,0
		c-1.045,0-3.941,1.184-3.941,3.949c0,2.768,3.01,3.354,4.103,3.311c-0.611,0.744-0.088,1.428,0.236,1.771
		c0.325,0.354,0.264,0.463-0.133,0.463c-0.395,0-5.229,0.057-5.229,3.52c0,3.459,6.428,3.709,8.541,1.854
		C103.322,306.628,102.864,304.055,101.23,302.893z M98.136,300.216c-2.594,0-3.771-6.062-0.72-6.062
		C99.793,294.068,101.579,300.216,98.136,300.216z M97.83,308.689c-2.155,0-3.312-1.076-3.312-2.682
		c0-1.606,1.568-2.396,4.515-2.396c0.799,0.613,2.224,1.354,2.224,2.854C101.253,307.966,99.982,308.689,97.83,308.689z"/>
	<path fill="none" d="M202.38,29.021h-44c-1.104,0-2,0.897-2,2V63.02c0,1.105,0.896,2,2,2h44c1.104,0,2-0.895,2-2V31.021
		C204.38,29.918,203.484,29.021,202.38,29.021z M200.113,39.626l-14,12.786c-0.555,0.957-1.772,1.282-2.729,0.73
		c-0.229-0.132-0.417-0.303-0.57-0.499c-0.228-0.146-0.425-0.335-0.576-0.56l-9.301-6.625l-8.816,10.542
		c-0.556,0.964-1.773,1.293-2.73,0.734c-0.957-0.556-1.283-1.784-0.729-2.75l9.938-11.888c0.076-0.14,0.175-0.271,0.289-0.391
		c0.354-0.403,0.847-0.642,1.36-0.678c0.887-0.125,1.812,0.215,2.285,0.919l9.768,6.958l12.354-11.282
		c0.556-0.955,1.772-1.284,2.729-0.731C200.337,37.446,200.665,38.67,200.113,39.626z"/>
	<path fill="none" d="M174.238,357.335c-1.957-2.802-4.903-4.854-8.345-5.643c0.854,1.396,1.56,3.336,2.062,5.643H174.238z"/>
	<path fill="none" d="M159.158,371.335h7.221c0.208-1.533,0.342-3.225,0.376-5h-7.973
		C158.819,368.115,158.95,369.802,159.158,371.335z"/>
	<path fill="none" d="M176.382,163.669h-5.001l-1.602-2.751c0,0-0.719-1.25-1.603-1.25h-9.601c-0.889,0-1.604,1.25-1.604,1.25
		l-1.6,2.751h-5.001c-0.556,0-1,0.448-1,1v18c0,0.552,0.444,1,1,1h26c0.553,0,1-0.448,1-1v-18
		C177.382,164.117,176.932,163.669,176.382,163.669z M163.382,181.668c-4.418,0-8-3.582-8-8s3.582-8,8-8s8,3.581,8,8
		S167.799,181.668,163.382,181.668z"/>
	<path fill="none" d="M166.377,359.335h-7.222c-0.207,1.532-0.341,3.221-0.376,5h7.974
		C166.718,362.555,166.585,360.869,166.377,359.335z"/>
	<polygon fill="none" points="448.382,68.427 460.382,77 460.382,37 448.382,45.569 	"/>
	<path fill="none" d="M481.769,352.15c-6.729,0-12.188,5.457-12.188,12.188c0,6.729,5.457,12.188,12.188,12.188
		c6.729,0,12.188-5.455,12.188-12.188C493.956,357.605,488.497,352.15,481.769,352.15z M488.269,366.339h-7c-0.557,0-1-0.447-1-1v-9
		c0-0.554,0.443-1,1-1c0.553,0,1,0.446,1,1v8h6c0.553,0,1,0.446,1,1C489.269,365.891,488.821,366.339,488.269,366.339z"/>
	<path fill="none" d="M36.252,293.65c-2.934,0.104-3.53,1.754-3.584,3.49h-0.005v1.521h-1.995v2.982h1.995v7.994h3.008v-7.994h2.463
		l0.476-2.982h-2.938v-0.922c0-0.584,0.389-1.055,0.939-1.055h2.061v-3.047h-2.418L36.252,293.65L36.252,293.65z"/>
	<rect x="440.382" y="45.003" fill="none" width="4" height="23.996"/>
	<path fill="none" d="M495.715,159.335h-20c-0.56,0-1,0.446-1,1v7v18h-2v-18h-3c-0.56,0-1,0.446-1,1v18c0,0.552,0.44,0.999,1,0.999
		h6h4h16c0.551,0,1-0.447,1-0.999v-26C496.715,159.783,496.266,159.335,495.715,159.335z M494.715,179.334h-18v-2h18V179.334z
		 M494.715,173.335h-18v-2.001h18V173.335z M494.715,167.335h-18v-2h18V167.335z"/>
	<path fill="none" d="M151.3,373.335c1.957,2.799,4.9,4.854,8.343,5.639c-0.854-1.393-1.559-3.338-2.062-5.639H151.3z"/>
	<path fill="none" d="M406.382,44.999c-1.105,0-2,0.896-2,2.001v20c0,1.104,0.895,2.001,2,2.001h2h28V44.999h-28H406.382z"/>
	<polygon fill="none" points="535.184,370.409 540.678,364.914 545.172,369.409 546.586,367.995 546.553,367.959 551.973,362.541 
		553.77,364.338 554.77,358.338 548.77,359.338 550.559,361.127 545.141,366.545 542.09,363.5 542.252,363.338 540.836,361.924 
		533.77,368.993 	"/>
	<path fill="none" d="M344.07,178.439c-2.605,1.533-3.996,4.065-3.091,5.659c0.905,1.592,3.756,1.642,6.368,0.108
		c2.612-1.532,3.996-4.066,3.091-5.658S346.686,176.908,344.07,178.439z"/>
	<path fill="none" d="M599.365,346.516c-0.018,0.021-0.041,0.039-0.041,0.039S599.342,346.555,599.365,346.516z"/>
	<path fill="none" d="M278.046,71.353h40.001c1.104,0,2-0.895,2-1.999v-28c0-1.104-0.896-2-2-2h-40.001c-1.104,0-2,0.896-2,2v28
		C276.046,70.459,276.942,71.353,278.046,71.353z M292.394,51.145c0-2.712,2.249-4.816,5.489-5.291V43.38h2.512v2.422
		c3.391,0.261,5.144,1.92,5.144,1.92l-1.639,2.763c0,0-1.98-1.63-4.585-1.63c-1.752,0-3.125,0.921-3.125,2.237
		c0,3.131,9.845,2.578,9.845,8.474c0,2.685-2.073,4.976-5.64,5.396v2.421h-2.512v-2.421c-3.767-0.396-5.84-2.477-5.84-2.477
		l2.044-2.552c0,0,2.249,1.976,5.169,1.976c1.577,0,3.009-0.737,3.009-2.265C302.264,56.486,292.394,56.802,292.394,51.145z"/>
	<path fill="none" d="M95.714,179.671h13.288l3.355-11.033l-19.562,0.031l2.663,11.05C95.543,179.689,95.627,179.671,95.714,179.671
		z"/>
	<circle fill="none" cx="497.382" cy="47.021" r="14"/>
	<circle fill="none" cx="28.714" cy="99.838" r="1.5"/>
	<circle fill="none" cx="18.214" cy="99.838" r="1.5"/>
	<circle fill="none" cx="23.464" cy="99.838" r="1.5"/>
	<path fill="none" d="M362.07,174.441c-2.605,1.533-3.996,4.066-3.091,5.658c0.905,1.593,3.756,1.644,6.368,0.109
		s3.996-4.066,3.091-5.659C367.533,172.96,364.686,172.91,362.07,174.441z"/>
	<polygon fill="none" points="18.214,104.338 16.714,104.338 16.714,134.338 58.714,134.338 58.714,104.338 57.214,104.338 	"/>
	<path fill="none" d="M392.048,71.353V41.357v-4h-1.959c-0.021,0-0.027-0.004-0.041-0.004h-44c-0.021,0-0.027,0.004-0.042,0.004
		h-1.958v1.993c0,0.001,0,0.002,0,0.003v32c0,1.105,0.896,2,2,2h44C391.15,73.353,392.048,72.459,392.048,71.353z M387.778,47.96
		l-14,12.785c-0.552,0.957-1.771,1.282-2.729,0.731c-0.229-0.132-0.417-0.303-0.57-0.499c-0.229-0.146-0.425-0.335-0.576-0.56
		l-9.302-6.625l-8.82,10.542c-0.552,0.964-1.771,1.293-2.729,0.735c-0.957-0.556-1.284-1.784-0.732-2.75l9.943-11.888
		c0.075-0.14,0.174-0.27,0.289-0.392c0.353-0.403,0.846-0.642,1.354-0.678c0.894-0.125,1.812,0.215,2.286,0.92l9.771,6.958
		l12.354-11.281c0.555-0.955,1.775-1.284,2.732-0.731C388.004,45.78,388.324,47.004,387.778,47.96z"/>
	<rect x="410.048" y="160.003" fill="none" width="10" height="2"/>
	<polygon fill="none" points="414.049,168.003 416.049,168.003 419.24,164.002 410.848,164.002 	"/>
	<polygon fill="none" points="417.438,86.315 419.77,100.316 428.057,96.174 425.592,86.315 	"/>
	<path fill="none" d="M26.514,167.504l-5.135-9.476l-5.134,9.476c-0.208,0.35-0.607,0.523-0.997,0.476H8.784l6.279,6.282
		c0.271,0.251,0.396,0.633,0.293,1.011l-2.238,8.296l7.47-5.301c0.217-0.2,0.507-0.287,0.792-0.27
		c0.286-0.02,0.575,0.067,0.792,0.27l7.471,5.301l-2.244-8.296c-0.104-0.378,0.024-0.76,0.294-1.012l6.284-6.281H27.51
		C27.123,168.029,26.722,167.855,26.514,167.504z"/>
	<path fill="#333333" d="M48.816,363.623c-0.04-0.044-0.094-0.062-0.14-0.098l-3.908-3.905c-0.381-0.384-1-0.384-1.381,0
		c-0.381,0.386-0.381,1,0,1.386l2.333,2.332H35.102v-10.619l2.333,2.334c0.381,0.383,1,0.383,1.381,0c0.384-0.381,0.384-1,0-1.381
		l-3.901-3.902c-0.029-0.049-0.055-0.104-0.097-0.146c-0.122-0.123-0.271-0.188-0.429-0.233c-0.064-0.021-0.139-0.031-0.21-0.039
		c-0.021-0.002-0.042-0.011-0.062-0.009c-0.005-0.002-0.01-0.002-0.016-0.002c-0.004,0-0.007,0.002-0.01,0.002
		c-0.254-0.004-0.514,0.089-0.705,0.281c-0.041,0.041-0.062,0.094-0.091,0.142l-3.909,3.907c-0.381,0.381-0.381,1,0,1.381
		c0.381,0.384,1,0.384,1.381,0l2.333-2.334v10.619H22.484l2.333-2.332c0.383-0.386,0.383-1,0-1.386c-0.383-0.383-1-0.383-1.382,0
		l-3.907,3.906c-0.047,0.031-0.1,0.053-0.142,0.097c-0.193,0.19-0.287,0.444-0.283,0.702c0,0.004-0.002,0.007-0.002,0.013
		c0,0.004,0.002,0.006,0.002,0.011c-0.004,0.258,0.089,0.514,0.283,0.704c0.042,0.043,0.097,0.062,0.146,0.099l3.902,3.901
		c0.382,0.382,1,0.382,1.382,0c0.383-0.381,0.383-0.997,0-1.381l-2.334-2.334h10.618v10.616l-2.333-2.332
		c-0.381-0.385-1-0.385-1.381,0c-0.381,0.384-0.381,0.998,0,1.384l3.909,3.905c0.028,0.046,0.05,0.101,0.091,0.142
		c0.19,0.192,0.45,0.287,0.704,0.281c0.004,0,0.007,0.004,0.011,0.004s0.011,0,0.016,0c0.021,0,0.04-0.011,0.062-0.011
		c0.073-0.008,0.146-0.021,0.215-0.043c0.155-0.044,0.308-0.108,0.429-0.231c0.043-0.041,0.062-0.099,0.096-0.146l3.904-3.9
		c0.382-0.386,0.382-1,0-1.383c-0.383-0.385-1-0.385-1.383,0l-2.333,2.331V365.34h10.619l-2.334,2.334c-0.381,0.384-0.381,1,0,1.381
		c0.381,0.384,1,0.384,1.381,0l3.905-3.901c0.047-0.03,0.103-0.055,0.145-0.099c0.193-0.189,0.285-0.446,0.281-0.704
		c0-0.005,0.002-0.007,0.002-0.011c0-0.006-0.002-0.008-0.002-0.013C49.103,364.069,49.011,363.815,48.816,363.623z"/>
	<path fill="#89B43F" d="M279.046,69.688h44.001c2.209,0,4-1.792,4-4.001V33.688c0-2.209-1.791-4.001-4-4.001h-44.001
		c-2.209,0-4,1.792-4,4.001v31.999C275.046,67.896,276.837,69.688,279.046,69.688z M279.046,35.688c0-1.104,0.896-2,2-2h40.001
		c1.104,0,2,0.896,2,2v28c0,1.104-0.896,1.999-2,1.999h-40.001c-1.104,0-2-0.895-2-1.999V35.688z"/>
	<path fill="#89B43F" d="M302.256,56.241c-2.92,0-5.169-1.976-5.169-1.976l-2.044,2.552c0,0,2.07,2.081,5.84,2.477v2.421h2.512
		v-2.421c3.562-0.42,5.639-2.712,5.639-5.396c0-5.896-9.844-5.343-9.844-8.474c0-1.316,1.373-2.237,3.125-2.237
		c2.604,0,4.585,1.63,4.585,1.63l1.638-2.763c0,0-1.752-1.659-5.143-1.92v-2.421h-2.512v2.474c-3.24,0.475-5.489,2.579-5.489,5.291
		c0,5.657,9.87,5.341,9.87,8.499C305.264,55.504,303.833,56.241,302.256,56.241z"/>
	<path fill="#8B8B8B" d="M279.048,170.566v19.102h2v-19.102c2.835-0.478,4-2.928,4-5.897v-6v-0.999h-2v0.999v6
		c0,1.859-0.277,3.413-2,3.856v-10.856h-2v10.856c-1.722-0.443-2-1.997-2-3.856v-6v-0.999h-2v0.999v6
		C275.048,167.64,276.213,170.089,279.048,170.566z"/>
	<path fill="#89B43F" d="M74.363,30.168c-1.559-1.56-4.077-1.56-5.639,0l-21.725,21.75l-0.001-0.001l-2.817,2.82l0,0l-5.638,5.644
		c-0.242,0.242-0.438,0.513-0.604,0.794c-3.134-0.594-7.361-0.213-11.562,3.847c-6.688,6.467,4,14-8,20c0,0,23.409,1.934,28-7.999
		c1.22-2.637,0.89-5.383,0.07-7.73c0.188-0.133,0.377-0.277,0.548-0.448l30.186-30.21c1.561-1.558,1.561-4.085,0-5.642
		L74.363,30.168z M42.381,77.021c-2.997,4.494-16,3.999-16,3.999c4-3.999-1.102-8.897,4-13.999c2.892-2.891,5.311-3.453,7.05-3.267
		c0.115,0.829,0.479,1.629,1.113,2.267l2.812,2.821c0.56,0.554,1.23,0.901,1.941,1.062C43.968,71.98,44.062,74.501,42.381,77.021z
		 M45.589,64.609c-0.777,0.781-2.04,0.781-2.817,0c-0.772-0.776-0.772-2.042,0-2.819l4.229-4.231l2.812,2.821L45.589,64.609z
		 M72.954,37.221l-20.32,20.338l-2.817-2.821L70.135,34.4c0.778-0.778,2.04-0.778,2.818,0
		C73.731,35.179,73.731,36.441,72.954,37.221z"/>
	<path fill="#89B43F" d="M331.047,43.688v2h2c1.104,0,2,0.896,2,2.001v27.997c0,1.105-0.896,2.001-2,2.001h-40.001
		c-1.104,0-2-0.896-2-2.001v-1.998h-4v3.999c0,2.209,1.791,4,4,4h44.001c2.208,0,4-1.791,4-4v-32c0-2.208-1.791-4-4-4h-6
		C330.151,41.688,331.047,42.584,331.047,43.688z"/>
	<path fill="#333333" d="M64.797,93.338h-43.5c-1.242,0-2.25,1.007-2.25,2.25v37.5c0,1.243,1.008,2.25,2.25,2.25h43.5
		c1.243,0,2.25-1.007,2.25-2.25v-37.5C67.047,94.345,66.04,93.338,64.797,93.338z M34.047,96.338c0.829,0,1.5,0.672,1.5,1.5
		c0,0.829-0.671,1.5-1.5,1.5c-0.828,0-1.5-0.671-1.5-1.5C32.547,97.01,33.219,96.338,34.047,96.338z M28.797,96.338
		c0.829,0,1.5,0.672,1.5,1.5c0,0.829-0.671,1.5-1.5,1.5s-1.5-0.671-1.5-1.5C27.297,97.01,27.968,96.338,28.797,96.338z
		 M23.547,96.338c0.829,0,1.5,0.672,1.5,1.5c0,0.829-0.671,1.5-1.5,1.5s-1.5-0.671-1.5-1.5
		C22.047,97.01,22.718,96.338,23.547,96.338z M64.047,132.338h-42v-30h1.5h39h1.5V132.338z"/>
	<path fill="#333333" d="M113.268,349.338h-29c-0.829,0-1.5,0.672-1.5,1.5v25c0,0.828,0.671,1.5,1.5,1.5h29
		c0.829,0,1.5-0.672,1.5-1.5v-25C114.768,350.01,114.096,349.338,113.268,349.338z M92.768,351.338c0.554,0,1,0.446,1,1
		c0,0.553-0.446,1-1,1c-0.552,0-1-0.447-1-1C91.768,351.786,92.217,351.338,92.768,351.338z M89.268,351.338c0.554,0,1,0.446,1,1
		c0,0.553-0.446,1-1,1c-0.552,0-1-0.447-1-1C88.268,351.786,88.717,351.338,89.268,351.338z M85.768,351.338c0.554,0,1,0.446,1,1
		c0,0.553-0.446,1-1,1c-0.552,0-1-0.447-1-1C84.768,351.786,85.217,351.338,85.768,351.338z M112.768,375.338h-28v-20h1h26h1
		V375.338z"/>
	<path fill="#333333" d="M546.77,351.338h-2v-1c0-0.559-0.449-1-1-1c-0.557,0-1,0.441-1,1v1h-2v2h6V351.338z"/>
	<path fill="#333333" d="M531.77,356.338v15c0,1.104,0.896,2,2,2h21c1.104,0,2-0.896,2-2v-15c0-1.104-0.896-2-2-2h-21
		C532.662,354.338,531.77,355.233,531.77,356.338z M542.252,363.338l-0.158,0.16l3.049,3.047l5.418-5.418l-1.789-1.789l6-1l-1,6
		l-1.797-1.799l-5.42,5.418l0.034,0.036l-1.413,1.411l-4.496-4.493l-5.494,5.493l-1.414-1.416l7.067-7.064L542.252,363.338z"/>
	<ellipse fill="#8B8B8B" cx="96.7" cy="185.706" rx="1.995" ry="1.933"/>
	<path fill="#DD4B39" d="M99.03,303.617c-2.938,0-4.514,0.786-4.514,2.396c0,1.604,1.154,2.682,3.312,2.682
		c2.148,0,3.423-0.729,3.423-2.221C101.253,304.979,99.828,304.232,99.03,303.617z"/>
	<path fill="#DD4B39" d="M98.709,285.673c-8.842,0-16.014,7.162-16.014,15.998c0,8.838,7.171,16,16.014,16s16.012-7.162,16.012-16
		C114.719,292.835,107.552,285.673,98.709,285.673z M101.21,308.494c-2.113,1.86-8.541,1.61-8.541-1.849
		c0-3.461,4.836-3.516,5.229-3.516c0.396,0,0.458-0.109,0.13-0.463c-0.321-0.354-0.852-1.027-0.233-1.773
		c-1.09,0.045-4.103-0.551-4.103-3.312c0-2.77,2.896-3.949,3.941-3.949c1.047,0,4.206,0,5.208,0c0,0-0.237,0.196-0.783,0.504
		c-0.546,0.311-1.562,0.154-1.562,0.154s1.414,0.877,1.414,2.59s-0.826,2.459-1.872,3.381c-1.052,0.924-0.438,1.475,1.192,2.637
		C102.864,304.055,103.322,306.628,101.21,308.494z M107.689,296.665h-1.96v1.973h-1.019v-1.973h-1.994v-1.021h1.994v-1.974h1.019
		v1.974h1.96V296.665z"/>
	<path fill="#333333" d="M130.302,116L130.302,116l-7.5-6.75l0,0c-0.396-0.359-0.926-0.578-1.505-0.578
		c-1.242,0-2.25,1.007-2.25,2.25c0,0.664,0.288,1.26,0.745,1.672l0.255,0.077l3,3h-14v-14l3.078,3.255l0,0
		c0.412,0.457,1.008,0.745,1.672,0.745c1.243,0,2.25-1.007,2.25-2.25c0-0.579-0.219-1.106-0.578-1.505l-6.75-7.5l0,0
		c-0.411-0.458-1.008-0.746-1.672-0.746s-1.26,0.288-1.672,0.746l0,0l-6.75,7.5c-0.358,0.397-0.578,0.927-0.578,1.505
		c0,1.243,1.008,2.25,2.25,2.25c0.664,0,1.262-0.288,1.672-0.745l0,0l3.078-3.255v14h-14l3.255-3.077l0,0
		c0.458-0.412,0.745-1.009,0.745-1.672c0-1.243-1.007-2.25-2.25-2.25c-0.579,0-1.105,0.218-1.505,0.578l-7.5,6.75
		c-0.458,0.412-0.745,1.008-0.745,1.672s0.288,1.26,0.745,1.672l7.5,6.75c0.396,0.359,0.926,0.578,1.505,0.578
		c1.243,0,2.25-1.007,2.25-2.25c0-0.664-0.288-1.26-0.745-1.672l0,0l-3.255-3.078h14v14l-3.078-3.255l0,0
		c-0.411-0.458-1.008-0.745-1.672-0.745c-1.242,0-2.25,1.007-2.25,2.25c0,0.579,0.22,1.104,0.578,1.505l6.75,7.5
		c0.412,0.457,1.009,0.745,1.672,0.745c0.664,0,1.262-0.288,1.672-0.745l6.75-7.5c0.359-0.399,0.578-0.926,0.578-1.505
		c0-1.243-1.007-2.25-2.25-2.25c-0.664,0-1.26,0.288-1.672,0.745l0,0l-3.078,3.255v-14h14l-3.255,3.078
		c-0.458,0.412-0.745,1.008-0.745,1.672c0,1.243,1.008,2.25,2.25,2.25c0.579,0,1.104-0.219,1.505-0.578l0,0l7.5-6.75l0,0
		c0.458-0.412,0.745-1.009,0.745-1.672C131.047,117.007,130.759,116.411,130.302,116z"/>
	<path fill="#8B8B8B" d="M50.01,168.981h-8.396l-5.667-10.457c-0.001-0.002-0.002-0.003-0.006-0.005l-0.024-0.057
		c-0.013-0.019-0.023-0.03-0.035-0.046c-0.021-0.028-0.038-0.057-0.062-0.081c-0.021-0.026-0.047-0.05-0.066-0.074
		c-0.021-0.021-0.042-0.04-0.063-0.058c-0.027-0.025-0.062-0.049-0.099-0.067c-0.016-0.009-0.024-0.021-0.039-0.028
		c-0.008-0.004-0.021-0.007-0.025-0.011c-0.031-0.018-0.065-0.033-0.104-0.047c-0.025-0.01-0.054-0.021-0.079-0.028
		c-0.033-0.009-0.065-0.016-0.102-0.021c-0.029-0.005-0.062-0.014-0.096-0.017c-0.028-0.003-0.062-0.002-0.097-0.002
		c-0.032,0-0.062,0-0.096,0.002c-0.031,0.003-0.062,0.011-0.098,0.017c-0.03,0.006-0.062,0.013-0.101,0.021
		c-0.025,0.008-0.052,0.021-0.077,0.028c-0.037,0.014-0.073,0.029-0.105,0.047c-0.011,0.004-0.021,0.007-0.023,0.011
		c-0.017,0.01-0.025,0.021-0.04,0.028c-0.033,0.021-0.063,0.042-0.097,0.067c-0.023,0.019-0.046,0.038-0.065,0.058
		c-0.021,0.023-0.048,0.047-0.067,0.073c-0.021,0.024-0.041,0.053-0.062,0.081c-0.011,0.016-0.021,0.028-0.034,0.046l-0.028,0.057
		c-0.001,0.002-0.004,0.003-0.005,0.005l-5.67,10.457h-8.396c-0.271-0.013-0.543,0.081-0.749,0.287
		c-0.248,0.248-0.335,0.593-0.271,0.913c0.002,0.009,0.009,0.017,0.014,0.026c0.012,0.049,0.021,0.098,0.045,0.146
		c0.061,0.147,0.148,0.275,0.271,0.378l7.499,7.495l-2.827,10.45c-0.021,0.092-0.028,0.183-0.025,0.274
		c-0.003,0.036,0.001,0.074,0.004,0.112c0.001,0.013,0.002,0.021,0.004,0.032c0.016,0.12,0.056,0.236,0.119,0.345
		c0.005,0.012,0.011,0.021,0.017,0.03c0.021,0.029,0.04,0.058,0.062,0.086c0.137,0.179,0.321,0.318,0.561,0.38
		c0.292,0.078,0.589,0.022,0.825-0.126c0.062-0.037,0.126-0.08,0.183-0.131l9.24-6.559l9.241,6.559
		c0.056,0.051,0.115,0.094,0.182,0.131c0.237,0.149,0.533,0.204,0.825,0.126c0.232-0.062,0.425-0.202,0.561-0.38
		c0.021-0.028,0.043-0.057,0.062-0.086c0.006-0.01,0.011-0.021,0.018-0.03c0.063-0.107,0.104-0.226,0.118-0.345
		c0.003-0.01,0.003-0.021,0.005-0.032c0.003-0.038,0.006-0.076,0.004-0.112c0-0.093-0.006-0.184-0.027-0.274l-2.825-10.45
		l7.498-7.495c0.117-0.103,0.213-0.229,0.271-0.378c0.021-0.045,0.031-0.093,0.043-0.14c0.002-0.011,0.01-0.021,0.014-0.032
		c0.065-0.319-0.021-0.665-0.271-0.912C50.553,169.063,50.281,168.969,50.01,168.981z M41.357,177.261
		c-0.27,0.251-0.396,0.634-0.294,1.012l2.244,8.296l-7.471-5.301c-0.217-0.2-0.506-0.287-0.792-0.27
		c-0.286-0.02-0.575,0.067-0.792,0.27l-7.47,5.301l2.238-8.296c0.104-0.378-0.021-0.76-0.293-1.011l-6.277-6.282h6.465
		c0.39,0.05,0.789-0.125,0.997-0.476l5.134-9.476l5.135,9.476c0.208,0.35,0.607,0.523,0.997,0.476h6.466L41.357,177.261z"/>
	<path fill="#2E5891" d="M34.669,285.673c-8.815,0-15.964,7.162-15.964,15.998c0,8.838,7.146,16,15.964,16
		c8.812,0,15.964-7.162,15.964-16C50.633,292.835,43.485,285.673,34.669,285.673z M38.67,296.686h-2.062
		c-0.554,0-0.938,0.475-0.938,1.059v0.92h2.938l-0.476,2.98h-2.463v7.994h-3.008v-7.994h-1.995v-2.98h1.995v-1.521h0.005
		c0.054-1.732,0.648-3.387,3.584-3.49v-0.012h2.418L38.67,296.686L38.67,296.686z"/>
	<path fill="#0098E2" d="M142.37,58.91c-0.016-0.187-0.049-0.361-0.104-0.529c-0.032-0.1-0.074-0.189-0.122-0.284
		c-0.062-0.122-0.141-0.236-0.228-0.341c-0.042-0.052-0.062-0.115-0.107-0.163c-0.119-0.119-0.252-0.212-0.392-0.294l-7.706-7.707
		c-0.765-0.763-2-0.763-2.763,0c-0.768,0.762-0.768,1.999,0,2.763l4.665,4.665h-21.234V35.785l4.667,4.667
		c0.764,0.762,2,0.762,2.763,0c0.767-0.765,0.767-2,0-2.764l-7.754-7.754c-0.021-0.039-0.062-0.067-0.09-0.104
		c-0.057-0.077-0.087-0.167-0.156-0.236c-0.391-0.389-0.9-0.576-1.415-0.567c-0.005,0-0.01-0.002-0.015-0.002
		c-0.006,0-0.011,0.001-0.021,0.001c-0.51-0.008-1.021,0.181-1.407,0.568c-0.057,0.051-0.071,0.118-0.115,0.173
		c-0.028,0.035-0.049,0.077-0.075,0.113l-7.81,7.81c-0.769,0.765-0.769,1.999,0,2.764c0.763,0.762,2,0.762,2.762,0l4.667-4.667
		V57.02H89.143l4.666-4.665c0.767-0.764,0.767-2.001,0-2.763c-0.764-0.763-2-0.763-2.763,0L83.34,57.3
		c-0.138,0.082-0.271,0.175-0.39,0.294c-0.053,0.047-0.064,0.11-0.105,0.161c-0.089,0.105-0.165,0.222-0.229,0.346
		c-0.051,0.092-0.092,0.183-0.118,0.278c-0.062,0.17-0.1,0.349-0.104,0.536c-0.001,0.025-0.01,0.052-0.009,0.079
		c0,0.009-0.002,0.018-0.002,0.025c0,0.01,0.003,0.02,0.003,0.028c0,0.046,0.016,0.091,0.021,0.137
		c0.015,0.157,0.041,0.311,0.089,0.453c0.027,0.105,0.066,0.202,0.12,0.301c0.049,0.09,0.104,0.169,0.167,0.25
		c0.062,0.086,0.099,0.187,0.176,0.264c0.117,0.117,0.252,0.213,0.392,0.295l7.704,7.704c0.764,0.764,2,0.764,2.763,0
		c0.768-0.764,0.768-1.998,0-2.763l-4.667-4.667h21.237V82.26l-4.667-4.666c-0.763-0.763-2-0.763-2.762,0
		c-0.769,0.761-0.769,1.999,0,2.761l7.811,7.812c0.025,0.038,0.047,0.079,0.075,0.112c0.044,0.057,0.062,0.122,0.115,0.174
		c0.389,0.389,0.896,0.575,1.409,0.567c0.008,0,0.014,0.002,0.021,0.002c0.006,0,0.012-0.002,0.021-0.002
		c0.512,0.008,1.021-0.18,1.41-0.567c0.067-0.069,0.104-0.159,0.155-0.235c0.027-0.037,0.062-0.068,0.089-0.107l7.754-7.754
		c0.768-0.762,0.768-2,0-2.761c-0.764-0.763-2-0.763-2.763,0l-4.667,4.666v-21.24h21.238l-4.667,4.667
		c-0.769,0.765-0.769,1.999,0,2.763c0.763,0.764,2,0.764,2.762,0l7.705-7.704c0.14-0.082,0.271-0.178,0.392-0.295
		c0.079-0.078,0.113-0.18,0.181-0.268c0.06-0.08,0.115-0.157,0.163-0.245c0.053-0.1,0.091-0.196,0.123-0.304
		c0.046-0.143,0.069-0.292,0.087-0.446c0.004-0.049,0.021-0.095,0.021-0.144c0-0.009,0.004-0.019,0.004-0.026
		s-0.004-0.017-0.004-0.024C142.378,58.964,142.371,58.938,142.37,58.91z"/>
	<path fill="#8B8B8B" d="M89.828,158.667c-0.104-0.021-0.2-0.024-0.309-0.014h-5.812c-0.553,0-0.999,0.435-0.999,0.968
		c0,0.531,0.446,0.966,0.999,0.966h5.188l4.953,20.554c0.138,0.513,0.654,0.817,1.16,0.679c0.136-0.035,0.255-0.104,0.355-0.188
		c0.104,0.024,0.222,0.04,0.343,0.04h13.354c0.096,0.063,0.189,0.118,0.31,0.147c0.357,0.101,0.729-0.031,0.96-0.303
		c0.215-0.13,0.352-0.341,0.352-0.642c0-0.061-0.006-0.119-0.017-0.182l3.995-13.111c0.02-0.071,0.021-0.139,0.015-0.199
		c0-0.011,0.002-0.023,0.002-0.034c0.003-0.534-0.417-0.679-0.97-0.679c-0.295-0.08-0.499-0.102-0.646,0H92.316l-1.645-6.82
		c0.02-0.075,0.032-0.149,0.032-0.229C90.706,159.127,90.321,158.725,89.828,158.667z M112.362,168.638l-3.358,11.033H95.714
		c-0.087,0-0.171,0.019-0.252,0.048l-2.663-11.05L112.362,168.638z"/>
	<path fill="#DD4B39" d="M97.418,294.158c-3.051,0-1.875,6.058,0.72,6.058C101.579,300.216,99.793,294.068,97.418,294.158z"/>
	<ellipse fill="#8B8B8B" cx="106.689" cy="185.706" rx="1.998" ry="1.933"/>
	<path fill="#333333" d="M183.216,93.683l-2.928,4.396c-2.208,0.046-7.854,0.696-13.594,5.715l14.275,10.888
		c2.625-7.657,1.207-13.75,0.562-15.819l2.854-4.281L183.216,93.683z"/>
	<path fill="#333333" d="M481.769,349.339c-8.285,0-15,6.717-15,15c0,8.282,6.715,15,15,15c8.281,0,15-6.718,15-15
		C496.769,356.055,490.048,349.339,481.769,349.339z M481.769,376.525c-6.729,0-12.188-5.455-12.188-12.188
		c0-6.729,5.457-12.188,12.188-12.188c6.729,0,12.188,5.457,12.188,12.188C493.955,371.07,488.497,376.525,481.769,376.525z"/>
	<rect x="476.715" y="177.334" fill="#8B8B8B" width="18" height="2"/>
	<path fill="#333333" d="M488.269,364.339h-6v-8c0-0.554-0.447-1-1-1c-0.557,0-1,0.446-1,1v9c0,0.553,0.443,1,1,1h7
		c0.553,0,1-0.447,1-1C489.269,364.787,488.821,364.339,488.269,364.339z"/>
	<path fill="#8B8B8B" d="M421.404,167.83l-0.354,2.173c2.428,1.824,4,4.729,4,8c0,5.521-4.48,10-10,10c-5.525,0-10-4.479-10-10
		c0-3.271,1.564-6.176,4-8l-0.361-2.173c-3.387,2.122-5.639,5.883-5.639,10.173c0,6.627,5.373,12,12,12c6.626,0,12-5.372,12-12
		C427.048,173.712,424.794,169.951,421.404,167.83z"/>
	<path fill="#8B8B8B" d="M411.048,158.002l-3,1v4l5,7h4l5-7v-4l-3-1H411.048z M416.049,168.003h-2l-3.2-4h8.395L416.049,168.003z
		 M420.048,162.002h-10v-2h10V162.002z"/>
	<path fill="#333333" d="M162.769,349.335c-8.499,0-15.431,6.633-15.949,15h-0.051v2h0.051c0.521,8.366,7.45,15,15.949,15
		s15.434-6.634,15.949-15h0.051v-2h-0.051C178.198,355.968,171.267,349.335,162.769,349.335z M174.238,357.335h-6.282
		c-0.502-2.305-1.208-4.246-2.062-5.643C169.332,352.482,172.281,354.535,174.238,357.335z M158.782,364.335
		c0.034-1.779,0.168-3.468,0.376-5h7.221c0.208,1.532,0.342,3.221,0.378,5H158.782z M166.753,366.335
		c-0.034,1.775-0.168,3.467-0.376,5h-7.222c-0.207-1.533-0.341-3.225-0.376-5H166.753z M162.769,351.335
		c1.356,0,2.556,2.377,3.273,6h-6.553C160.215,353.712,161.409,351.335,162.769,351.335z M159.643,351.695
		c-0.854,1.396-1.559,3.339-2.062,5.643h-6.279C153.257,354.538,156.203,352.482,159.643,351.695z M150.138,359.335h7.081
		c-0.239,1.562-0.396,3.23-0.438,5h-7.971C148.938,362.553,149.406,360.869,150.138,359.335z M148.812,366.335h7.972
		c0.041,1.768,0.196,3.438,0.438,5h-7.081C149.406,369.802,148.938,368.117,148.812,366.335z M151.3,373.335h6.279
		c0.502,2.301,1.208,4.246,2.062,5.639C156.203,378.186,153.257,376.134,151.3,373.335z M162.769,379.335
		c-1.355,0-2.554-2.379-3.272-6h6.553C165.323,376.958,164.126,379.335,162.769,379.335z M165.894,378.973
		c0.854-1.393,1.561-3.338,2.062-5.639h6.283C172.281,376.134,169.332,378.186,165.894,378.973z M175.4,371.335h-7.081
		c0.237-1.562,0.396-3.232,0.438-5h7.969C176.599,368.117,176.13,369.802,175.4,371.335z M168.756,364.335
		c-0.041-1.77-0.199-3.438-0.438-5h7.08c0.729,1.532,1.199,3.219,1.326,5H168.756z"/>
	<path fill="#FD9500" d="M466.382,29L449.88,41h-3.498v0.004h-1.951c-0.022,0-0.031-0.004-0.049-0.004h-2h-4h-30
		c-3.312,0-6,2.687-6,6v20c0,3.312,2.688,6.001,6,6.001h6.668l3.334,20.004l16-8l-3.002-12.004h7.002v0.003h11.504l16.496,11.997
		L466.382,29L466.382,29z M421.437,87.004l-2.33-14.001h8.152l2.465,9.856L421.437,87.004z M438.382,69.001h-28h-2
		c-1.105,0-2-0.896-2-2.001V47c0-1.105,0.895-2.001,2-2.001h2h28V69.001z M446.382,69.001h-4V45.003h4V69.001z M462.382,77
		l-12-8.572V45.569l12-8.57V77z"/>
	<rect x="476.715" y="171.334" fill="#8B8B8B" width="18" height="2.001"/>
	<path fill="#333333" d="M426.936,355.347c-1.541-3.535-5.062-6.01-9.167-6.01c-5.523,0-10,4.479-10,10
		c0,0.023,0.004,0.061,0.004,0.09c-2.838,0.475-5.004,2.938-5.004,5.91c0,3.312,2.686,6,6,6h19.001v-0.068
		c3.939-0.494,7-3.854,7-7.932C434.77,358.976,431.276,355.435,426.936,355.347z"/>
	<path fill="#333333" d="M658.769,378.338h30v-29h-30V378.338z M660.769,351.338h26v22h-26V351.338z"/>
	<ellipse fill="#333333" cx="667.424" cy="357.944" rx="3.389" ry="3.328"/>
	<polygon fill="#333333" points="673.406,368.879 672.444,368.879 668.57,364.125 663.381,371.338 685.381,371.338 680.188,355.567 
			"/>
	<polygon fill="#333333" points="722.522,376.72 731.883,374.142 725.195,367.692 	"/>
	<polygon fill="#333333" points="726.25,367.049 732.939,373.495 747.65,359.31 740.96,352.86 	"/>
	<rect x="476.715" y="165.335" fill="#8B8B8B" width="18" height="2"/>
	<path fill="#333333" d="M750.02,354.233l-4.18-4.029c-0.689-0.668-1.855-0.633-2.595,0.082l-2.009,1.936l6.689,6.445l2.008-1.936
		C750.674,356.019,750.711,354.901,750.02,354.233z"/>
	<path fill="#EA3647" d="M500.186,63.356c5.484-3.086,9.193-8.952,9.193-15.689c0-9.94-8.062-17.999-18-17.999
		c-9.939,0-18,8.059-18,17.999c0,6.738,3.711,12.604,9.188,15.689c-8.895,3.514-15.188,12.168-15.188,22.312v3.999h4v-3.999
		c0-11.047,8.949-20,20-20c5.385,0,10.27,2.132,13.857,5.593c0.867-1.01,1.855-1.91,2.947-2.677
		C505.913,66.346,503.203,64.55,500.186,63.356z M477.381,47.667c0-7.731,6.27-13.999,14-13.999c7.729,0,14,6.268,14,13.999
		s-6.271,14-14,14C483.649,61.667,477.381,55.398,477.381,47.667z"/>
	<path fill="#8B8B8B" d="M495.715,157.335h-20c-1.658,0-3,1.343-3,3v5h-3c-1.658,0-3,1.343-3,3v18c0,1.657,1.342,3,3,3h6h4h16
		c1.649,0,3-1.343,3-3v-26C498.715,158.679,497.365,157.335,495.715,157.335z M496.715,186.335c0,0.552-0.449,0.999-1,0.999h-16h-4
		h-6c-0.56,0-1-0.447-1-0.999v-18c0-0.553,0.44-1,1-1h3v18h2v-18v-7c0-0.552,0.44-1,1-1h20c0.551,0,1,0.447,1,1V186.335z"/>
	<path fill="#333333" d="M556.77,374.338h-25c-0.557,0-1,0.441-1,1c0,0.553,0.443,1,1,1h7l-2,5h3l2-5h4l2,5h3l-2-5h8
		c0.551,0,1-0.447,1-1C557.77,374.784,557.32,374.338,556.77,374.338z"/>
	<path fill="#EA3647" d="M529.714,83.979c0-1.104-0.896-2-2-2h-6V75.98c0-1.104-0.896-2.001-2-2.001c-1.104,0-2,0.896-2,2.001v5.999
		h-6c-1.104,0-2,0.896-2,2c0,1.106,0.896,2.001,2,2.001h6v6c0,1.104,0.896,2,2,2c1.104,0,2-0.896,2-2v-6h6
		C528.818,85.98,529.714,85.085,529.714,83.979z"/>
	<path fill="#333333" d="M624.952,358.177c-1.434,0.369-2.854,0.274-3.574,0.084c-1.688-7.082-6.314-6.707-6.314-6.707
		s2.201-0.562,2.326-1.256c0.129-0.697-1.104-0.381-2.41,0.189c0.467-0.271,1.115-0.723,0.83-1.158
		c-0.687-0.068-1.854,0.997-2.053,1.188c-0.023,0.039-0.041,0.039-0.041,0.039s0.021-0.021,0.041-0.039
		c0.053-0.067,0.143-0.258,0.282-0.795c-1.329,0.316-2.974,3.34-4.735,8.232c-1.742-2.273-8.646-5.564-10.037-5.855
		c0.06,3.223,2.002,3.674,2.447,4.283c-0.627-0.018-1.129-0.016-1.744,0.311c0,1.695,2.207,3.076,3.271,3.365
		c-0.977,0.158-1.434,0.324-1.94,0.957c1.375,2.412,2.558,2.023,3.479,2.18c-2.838,2.41,1.095,2.973,1.095,2.973
		c-1.247,1.771-5.968,4.604-10.907,0.611c3.25,4.934,8.986,6.957,13.537,6.502c7.744-0.771,12.945-7.947,13.027-11.377
		c1.361,0.129,2.893-0.545,3.422-1.434c-0.848,0.229-2.385-0.219-3.014-0.42C623.291,359.757,624.097,359.542,624.952,358.177z"/>
	<path fill="#333333" d="M151.12,111.289c-5.849,8.77-3.045,17.039-3.045,17.039s1.286-2.826,5.771-4.062
		c2.359-8.886,6.333-15.59,6.333-15.59S154.531,106.168,151.12,111.289z"/>
	<path fill="#333333" d="M177.263,122.134c1.387-2.082,2.401-4.104,3.179-6.049l-14.81-11.293c-1.462,1.421-2.916,3.106-4.303,5.188
		c-3.085,4.63-7.271,18.269-7.271,18.269l9.443,7.201C163.504,135.45,174.224,126.694,177.263,122.134z M166.167,113.914
		c1.188-1.782,3.501-2.197,5.167-0.929c1.666,1.271,2.055,3.745,0.864,5.527c-1.188,1.782-3.5,2.197-5.168,0.927
		C165.368,118.17,164.979,115.695,166.167,113.914z"/>
	<path fill="#333333" d="M167.093,134.366c0.37,4.938-1.706,7.16-1.706,7.16s8.22,0.134,14.062-8.638
		c3.406-5.121-0.646-10.014-0.646-10.014S174.175,129.082,167.093,134.366z"/>
	<path fill="#FD9500" d="M208.38,29.021h-6h-48h-6c-1.104,0-2,0.896-2,1.999c0,1.106,0.896,2.001,2,2.001h2V69.02
		c0,2.21,1.791,4.001,4,4.001h17.271l-4.978,9.164c-0.613,0.91-0.25,2.072,0.812,2.6c1.062,0.521,2.428,0.214,3.036-0.695
		l5.561-10.231c0.179-0.264,0.266-0.55,0.283-0.835h4.021c0.021,0.285,0.106,0.571,0.284,0.835l5.557,10.231
		c0.614,0.909,1.979,1.218,3.036,0.695c1.062-0.526,1.427-1.688,0.812-2.6l-4.979-9.164h17.275c2.209,0,4-1.791,4-4.001V33.021h2
		c1.104,0,2-0.895,2-2.001C210.38,29.917,209.484,29.021,208.38,29.021z M202.38,67.02c0,1.105-0.896,2-2,2h-44
		c-1.104,0-2-0.895-2-2V35.021c0-1.103,0.896-2,2-2h44c1.104,0,2,0.897,2,2V67.02z"/>
	<polygon fill="#333333" points="158.002,135.289 158.285,137.09 161.344,135.615 154.59,130.464 153.638,134.711 155.707,133.539 
		154.615,137.997 	"/>
	<path fill="#FD9500" d="M199.38,36.896c-0.957-0.553-2.18-0.224-2.731,0.731l-12.354,11.284l-9.771-6.958
		c-0.477-0.705-1.396-1.044-2.282-0.919c-0.519,0.035-1.012,0.271-1.359,0.677c-0.114,0.122-0.212,0.251-0.289,0.391L160.65,53.99
		c-0.552,0.965-0.226,2.193,0.731,2.75c0.957,0.558,2.181,0.229,2.729-0.735l8.82-10.542l9.301,6.625
		c0.15,0.225,0.354,0.412,0.576,0.56c0.152,0.195,0.343,0.367,0.57,0.499c0.957,0.552,2.181,0.226,2.729-0.73l14-12.786
		C200.665,38.67,200.337,37.446,199.38,36.896z"/>
	<path fill="#349AB8" d="M178.706,301.671c0-8.836-7.146-15.998-15.964-15.998c-8.818,0-15.97,7.162-15.97,15.998
		c0,8.838,7.146,16,15.97,16C171.557,317.671,178.706,310.509,178.706,301.671z M153.759,307.966
		c0.306,0.035,0.614,0.053,0.929,0.053c1.822,0,3.5-0.604,4.831-1.619c-1.702-0.027-3.14-1.125-3.635-2.629
		c0.238,0.045,0.479,0.068,0.729,0.068c0.354,0,0.696-0.047,1.022-0.133c-1.78-0.354-3.121-1.877-3.121-3.711
		c0-0.021,0-0.031,0-0.055c0.523,0.283,1.125,0.453,1.765,0.479c-1.047-0.682-1.729-1.836-1.729-3.148
		c0-0.689,0.192-1.344,0.527-1.9c1.918,2.291,4.779,3.797,8.02,3.955c-0.062-0.277-0.102-0.566-0.102-0.861
		c0-2.092,1.736-3.785,3.89-3.785c1.119,0,2.131,0.463,2.84,1.195c0.889-0.17,1.719-0.48,2.475-0.92
		c-0.291,0.885-0.905,1.627-1.715,2.096c0.788-0.092,1.538-0.295,2.234-0.598c-0.521,0.76-1.181,1.426-1.938,1.961
		c0.012,0.156,0.015,0.32,0.015,0.484c0,5-3.913,10.771-11.068,10.771C157.525,309.667,155.48,309.04,153.759,307.966z"/>
	<path fill="#333333" d="M231.267,368.405c1.646-2.014,2.639-4.596,2.639-7.406c0-6.439-5.181-11.658-11.565-11.658
		c-6.39,0-11.565,5.223-11.565,11.658c0,6.438,5.182,11.656,11.565,11.656c2.028,0,3.938-0.527,5.597-1.454
		c0.018,0.019,0.021,0.034,0.034,0.056l7.066,7.416c0.832,0.866,2.205,0.896,3.064,0.055c0.862-0.838,0.889-2.225,0.057-3.09
		L231.267,368.405z M222.335,369.743c-4.792,0-8.677-3.916-8.677-8.745c0-4.83,3.886-8.742,8.677-8.742s8.678,3.912,8.678,8.742
		C231.012,365.827,227.127,369.743,222.335,369.743z"/>
	<path fill="#0098E2" d="M378.104,73.354h17.275c2.209,0,4-1.791,4-4.001V33.354h2c1.103,0,2-0.895,2-2.001
		c0-1.104-0.896-1.999-2-1.999h-6h-48h-6c-1.104,0-2,0.896-2,1.999c0,1.106,0.896,2.001,2,2.001h2v35.999
		c0,2.21,1.791,4.001,4,4.001h17.271l-4.977,9.164c-0.614,0.909-0.25,2.071,0.812,2.6c1.063,0.521,2.422,0.214,3.036-0.695
		l5.559-10.231c0.182-0.264,0.269-0.55,0.282-0.835h4.025c0.02,0.285,0.104,0.571,0.285,0.835l5.556,10.231
		c0.614,0.909,1.973,1.218,3.035,0.695c1.062-0.526,1.427-1.688,0.812-2.6L378.104,73.354z M349.381,69.353c-1.104,0-2-0.895-2-2
		V35.354c0-0.001,0-0.002,0-0.003v-1.995h1.958c0.014,0,0.021-0.004,0.042-0.004h44c0.015,0,0.021,0.004,0.041,0.004h1.959v4v29.995
		c0,1.105-0.896,2-2,2L349.381,69.353L349.381,69.353z"/>
	<path fill="#8B8B8B" d="M177.382,161.669h-5l-1-2c0,0-0.896-2-2-2h-12c-1.104,0-2,2-2,2l-1,2h-5c-1.104,0-2,0.895-2,2v20
		c0,1.104,0.896,2,2,2h28c1.104,0,2-0.896,2-2v-20C179.382,162.564,178.484,161.669,177.382,161.669z M177.382,182.669
		c0,0.552-0.447,1-1,1h-26c-0.552,0-1-0.448-1-1v-18c0-0.552,0.448-1,1-1h5.001l1.6-2.751c0,0,0.72-1.25,1.604-1.25h9.601
		c0.887,0,1.604,1.25,1.604,1.25l1.6,2.751h5.001c0.555,0,1,0.448,1,1v18H177.382z"/>
	<path fill="#8B8B8B" d="M163.382,165.669c-4.418,0-8,3.581-8,8s3.582,8,8,8s8-3.582,8-8S167.799,165.669,163.382,165.669z
		 M163.382,179.668c-3.313,0-6-2.688-6-6c0-3.314,2.687-6,6-6c3.312,0,6,2.686,6,6C169.382,176.982,166.693,179.668,163.382,179.668
		z"/>
	<path fill="#333333" d="M359.443,357.838h3.396l-4.062-7.668l-0.005,0.002c-0.246-0.492-0.75-0.834-1.337-0.834
		c-0.828,0-1.5,0.672-1.5,1.5c0,0.27,0.071,0.516,0.193,0.729l-0.008,0.002L359.443,357.838z"/>
	<path fill="#333333" d="M370.427,360.713c-0.001-0.021-0.006-0.043-0.008-0.062c-0.003-0.019-0.006-0.041-0.011-0.062
		c-0.105-0.674-0.664-1.192-1.351-1.252h-0.127l0,0h-5.7h-0.354h-2.102h-0.103h-3.697h-0.053h-6.25h-0.054h-5h-5.696
		c-0.826,0-1.5,0.672-1.5,1.5c0,0.824,0.674,1.5,1.5,1.5h1.326l3.222,12.858l0.004-0.002c0.163,0.649,0.748,1.144,1.448,1.144
		c0.006,0,0.008,0,0.011,0h16.342h0.45h0.2c0.697,0,1.285-0.483,1.445-1.144l0.004,0.002l3.222-12.858h1.329
		c0.825,0,1.5-0.676,1.5-1.5c0,0,0,0,0-0.004c0-0.003,0-0.003,0-0.006c0-0.007,0-0.009,0-0.013
		C370.435,360.784,370.433,360.748,370.427,360.713z M349.936,371.838c0,0.826-0.671,1.5-1.5,1.5s-1.5-0.674-1.5-1.5v-8
		c0-0.828,0.671-1.5,1.5-1.5s1.5,0.672,1.5,1.5V371.838z M355.936,371.838c0,0.826-0.671,1.5-1.5,1.5s-1.5-0.674-1.5-1.5v-8
		c0-0.828,0.671-1.5,1.5-1.5s1.5,0.672,1.5,1.5V371.838z M361.936,371.838c0,0.826-0.671,1.5-1.5,1.5s-1.5-0.674-1.5-1.5v-8
		c0-0.828,0.671-1.5,1.5-1.5s1.5,0.672,1.5,1.5V371.838z"/>
	<path fill="#0098E2" d="M390.382,41.229c-0.957-0.553-2.187-0.223-2.732,0.731l-12.354,11.284l-9.771-6.958
		c-0.476-0.705-1.396-1.044-2.286-0.919c-0.515,0.035-1.008,0.271-1.354,0.677c-0.115,0.122-0.212,0.252-0.289,0.392l-9.943,11.89
		c-0.552,0.965-0.225,2.193,0.732,2.75s2.18,0.228,2.729-0.737l8.82-10.542l9.302,6.625c0.151,0.225,0.353,0.412,0.576,0.56
		c0.153,0.195,0.342,0.367,0.57,0.499c0.957,0.551,2.18,0.226,2.729-0.731l14-12.785C391.658,43.004,391.338,41.78,390.382,41.229z"
		/>
	<path fill="#8B8B8B" d="M370.18,157.333l-0.023,0.005h-1.438v0.297l-18,3.702v14.744c-1.938-1.154-4.951-1.008-7.667,0.577
		c-3.571,2.084-5.272,5.862-3.802,8.44c1.476,2.578,5.562,2.979,9.136,0.896c2.812-1.644,4.459-4.336,4.312-6.667h0.021v-16.205
		l16-3.395v12.354c-1.938-1.154-4.951-1.008-7.667,0.577c-3.571,2.084-5.272,5.862-3.802,8.439c1.476,2.579,5.562,2.979,9.136,0.896
		c2.812-1.646,4.459-4.337,4.312-6.667h0.021v-17.991h-0.532L370.18,157.333z M347.351,184.209
		c-2.612,1.532-5.463,1.481-6.368-0.108c-0.905-1.593,0.479-4.126,3.091-5.659c2.612-1.531,5.463-1.481,6.368,0.109
		S349.965,182.675,347.351,184.209z M365.351,180.21c-2.612,1.532-5.463,1.481-6.368-0.109s0.479-4.125,3.091-5.658
		c2.612-1.53,5.463-1.481,6.368,0.109S367.965,178.677,365.351,180.21z"/>
	<path fill="#333333" d="M351.436,349.338c-0.587,0-1.093,0.342-1.337,0.834l-0.007-0.002l-4.062,7.668h3.396l3.313-6.271
		l-0.009-0.004c0.122-0.217,0.197-0.463,0.197-0.729C352.936,350.01,352.261,349.338,351.436,349.338z"/>
	<path fill="#8B8B8B" d="M239.381,161.336h-6v-3c0-0.553-0.447-1-1-1h-10c-0.552,0-1,0.448-1,1v3h-6c-2.209,0-4,1.791-4,4v5v2.001
		v11c0,2.209,1.791,4,4,4h24c2.209,0,4-1.791,4-4v-11v-2.001v-5C243.381,163.127,241.59,161.336,239.381,161.336z M223.381,160.337
		c0-0.553,0.448-1.001,1-1.001h6c0.553,0,1,0.448,1,1.001v0.999h-1h-6h-1V160.337z M241.381,183.336c0,1.104-0.896,2-2,2h-24
		c-1.104,0-2-0.896-2-2v-11h9v6h10v-6h9V183.336z M224.381,176.336v-4h6v4H224.381z M241.381,170.335h-9h-10h-9v-5
		c0-1.104,0.896-2,2-2h24c1.104,0,2,0.895,2,2V170.335z"/>
	<path fill="#8B8B8B" d="M296.048,157.668c-3.865,0-7,4.027-7,9c0,4.533,2.606,8.271,6,8.896v14.103h2v-14.103
		c3.392-0.625,6-4.363,6-8.896C303.048,161.697,299.914,157.668,296.048,157.668z M296.048,173.668c-2.761,0-5-3.134-5-7
		s2.239-7,5-7c2.762,0,5,3.134,5,7S298.808,173.668,296.048,173.668z"/>
	<path fill="none" d="M239.381,228.669h-24c-1.104,0-2,0.895-2,2v5h9h10h9v-5C241.381,229.564,240.484,228.669,239.381,228.669z"/>
	<path fill="none" d="M232.381,243.669h-10v-6h-9v11c0,1.104,0.896,2,2,2h24c1.104,0,2-0.896,2-2v-11h-9V243.669z"/>
	<rect x="224.381" y="237.669" fill="none" width="6" height="4"/>
	<ellipse fill="none" cx="297.715" cy="231.001" rx="5" ry="7"/>
	<path fill="none" d="M230.381,226.669h1v-0.999c0-0.553-0.447-1.001-1-1.001h-6c-0.552,0-1,0.448-1,1.001v0.999h1H230.381z"/>
	<circle fill="none" cx="162.715" cy="237.335" r="6"/>
	<path fill="none" d="M175.715,227.336h-5.001l-1.602-2.751c0,0-0.719-1.25-1.603-1.25h-9.601c-0.889,0-1.604,1.25-1.604,1.25
		l-1.6,2.751h-5.001c-0.556,0-1,0.448-1,1v18c0,0.553,0.444,1,1,1h26c0.553,0,1-0.447,1-1v-18
		C176.715,227.784,176.265,227.336,175.715,227.336z M162.715,245.335c-4.418,0-8-3.582-8-8s3.582-8,8-8s8,3.581,8,8
		S167.132,245.335,162.715,245.335z"/>
	<path fill="none" d="M495.382,223.669h-20c-0.56,0-1,0.447-1,1v7v18h-2v-18h-3c-0.56,0-1,0.447-1,1v18c0,0.553,0.44,0.999,1,0.999
		h6h4h16c0.551,0,1-0.447,1-0.999v-26C496.382,224.117,495.933,223.669,495.382,223.669z M494.382,243.668h-18v-2h18V243.668z
		 M494.382,237.669h-18v-2.001h18V237.669z M494.382,231.669h-18v-2h18V231.669z"/>
	<path fill="none" d="M344.737,243.772c-2.605,1.533-3.996,4.065-3.091,5.66c0.905,1.592,3.756,1.643,6.368,0.107
		c2.612-1.532,3.996-4.066,3.091-5.658S347.353,242.241,344.737,243.772z"/>
	<path fill="none" d="M95.714,243.338h13.288l3.355-11.032l-19.562,0.03l2.663,11.05C95.543,243.356,95.627,243.338,95.714,243.338z
		"/>
	<path fill="none" d="M362.737,239.774c-2.605,1.533-3.996,4.066-3.091,5.658c0.905,1.594,3.756,1.645,6.368,0.109
		s3.996-4.066,3.091-5.659C368.2,238.293,365.353,238.243,362.737,239.774z"/>
	<rect x="409.715" y="223.337" fill="none" width="10" height="2"/>
	<polygon fill="none" points="413.716,231.337 415.716,231.337 418.908,227.336 410.515,227.336 	"/>
	<path fill="#0098E2" d="M279.048,234.566v19.103h2v-19.103c2.835-0.478,4-2.928,4-5.897v-6v-0.999h-2v0.999v6
		c0,1.859-0.277,3.414-2,3.856v-10.856h-2v10.856c-1.722-0.442-2-1.997-2-3.856v-6v-0.999h-2v0.999v6
		C275.048,231.64,276.213,234.09,279.048,234.566z"/>
	<ellipse fill="#0098E2" cx="96.7" cy="249.373" rx="1.995" ry="1.933"/>
	<path fill="#0098E2" d="M50.01,232.647h-8.396l-5.667-10.457c-0.001-0.002-0.002-0.003-0.006-0.005l-0.024-0.057
		c-0.013-0.019-0.023-0.03-0.035-0.046c-0.021-0.028-0.038-0.057-0.062-0.081c-0.021-0.026-0.047-0.05-0.066-0.074
		c-0.021-0.021-0.042-0.04-0.063-0.058c-0.027-0.025-0.062-0.049-0.099-0.067c-0.016-0.009-0.024-0.021-0.039-0.028
		c-0.008-0.004-0.021-0.007-0.025-0.011c-0.031-0.018-0.065-0.033-0.104-0.047c-0.025-0.01-0.054-0.021-0.079-0.028
		c-0.033-0.009-0.065-0.016-0.102-0.021c-0.029-0.005-0.062-0.014-0.096-0.017c-0.028-0.003-0.062-0.002-0.097-0.002
		c-0.032,0-0.062,0-0.096,0.002c-0.031,0.003-0.062,0.011-0.098,0.017c-0.03,0.006-0.062,0.013-0.101,0.021
		c-0.025,0.008-0.052,0.021-0.077,0.028c-0.037,0.014-0.073,0.029-0.105,0.047c-0.011,0.004-0.021,0.007-0.023,0.011
		c-0.017,0.008-0.025,0.021-0.04,0.028c-0.033,0.021-0.063,0.042-0.097,0.067c-0.023,0.019-0.046,0.036-0.065,0.058
		c-0.021,0.023-0.048,0.047-0.067,0.073c-0.021,0.024-0.041,0.053-0.062,0.081c-0.011,0.016-0.021,0.028-0.034,0.046l-0.028,0.057
		c-0.001,0.002-0.004,0.003-0.005,0.005l-5.67,10.458h-8.396c-0.271-0.014-0.543,0.08-0.749,0.287
		c-0.248,0.248-0.335,0.592-0.271,0.912c0.002,0.01,0.009,0.018,0.014,0.026c0.012,0.049,0.021,0.099,0.045,0.146
		c0.061,0.147,0.148,0.275,0.271,0.379l7.499,7.494l-2.827,10.45c-0.021,0.093-0.028,0.183-0.025,0.273
		c-0.003,0.036,0.001,0.075,0.004,0.112c0.001,0.013,0.002,0.021,0.004,0.032c0.016,0.12,0.056,0.236,0.119,0.345
		c0.005,0.013,0.011,0.021,0.017,0.03c0.021,0.029,0.04,0.058,0.062,0.087c0.137,0.178,0.321,0.317,0.561,0.379
		c0.292,0.078,0.589,0.022,0.825-0.125c0.062-0.037,0.126-0.08,0.183-0.132l9.24-6.559l9.241,6.559
		c0.056,0.052,0.115,0.095,0.182,0.132c0.237,0.148,0.533,0.203,0.825,0.125c0.232-0.062,0.425-0.201,0.561-0.379
		c0.021-0.029,0.043-0.058,0.062-0.087c0.006-0.01,0.011-0.021,0.018-0.03c0.063-0.106,0.104-0.226,0.118-0.345
		c0.003-0.01,0.003-0.021,0.005-0.032c0.003-0.037,0.006-0.076,0.004-0.112c0-0.093-0.006-0.183-0.027-0.273l-2.825-10.45
		l7.498-7.494c0.117-0.104,0.213-0.229,0.271-0.379c0.021-0.045,0.031-0.093,0.043-0.14c0.002-0.011,0.01-0.021,0.014-0.032
		c0.065-0.318-0.021-0.664-0.271-0.912C50.553,232.73,50.281,232.636,50.01,232.647z M41.357,240.928
		c-0.27,0.251-0.396,0.634-0.294,1.013l2.244,8.295l-7.471-5.301c-0.217-0.199-0.506-0.287-0.792-0.27
		c-0.286-0.02-0.575,0.066-0.792,0.27l-7.47,5.301l2.238-8.295c0.104-0.379-0.021-0.76-0.293-1.012l-6.277-6.282h6.465
		c0.39,0.049,0.789-0.125,0.997-0.477l5.134-9.476l5.135,9.476c0.208,0.35,0.607,0.523,0.997,0.477h6.466L41.357,240.928z"/>
	<path fill="#0098E2" d="M89.828,222.334c-0.104-0.021-0.2-0.024-0.309-0.014h-5.812c-0.553,0-0.999,0.435-0.999,0.968
		c0,0.531,0.446,0.966,0.999,0.966h5.188l4.953,20.554c0.138,0.514,0.654,0.817,1.16,0.68c0.136-0.035,0.255-0.104,0.355-0.188
		c0.104,0.025,0.222,0.04,0.343,0.04h13.354c0.096,0.062,0.189,0.118,0.31,0.146c0.357,0.102,0.729-0.03,0.96-0.303
		c0.215-0.129,0.352-0.341,0.352-0.642c0-0.062-0.006-0.119-0.017-0.183l3.995-13.11c0.02-0.071,0.021-0.14,0.015-0.199
		c0-0.011,0.002-0.022,0.002-0.034c0.003-0.533-0.417-0.679-0.97-0.679c-0.295-0.08-0.499-0.103-0.646,0H92.316l-1.645-6.82
		c0.02-0.075,0.032-0.149,0.032-0.229C90.706,222.794,90.321,222.392,89.828,222.334z M112.362,232.306l-3.358,11.032H95.714
		c-0.087,0-0.171,0.019-0.252,0.048l-2.663-11.05L112.362,232.306z"/>
	<ellipse fill="#0098E2" cx="106.689" cy="249.373" rx="1.998" ry="1.933"/>
	<rect x="476.382" y="241.668" fill="#0098E2" width="18" height="2"/>
	<path fill="#0098E2" d="M421.071,231.164l-0.354,2.173c2.428,1.824,4,4.729,4,8c0,5.521-4.48,10-10,10c-5.525,0-10-4.479-10-10
		c0-3.271,1.564-6.176,4-8l-0.361-2.173c-3.387,2.122-5.639,5.883-5.639,10.173c0,6.626,5.373,12,12,12c6.626,0,12-5.371,12-12
		C426.715,237.046,424.461,233.285,421.071,231.164z"/>
	<path fill="#0098E2" d="M410.715,221.336l-3,1v4l5,7h4l5-7v-4l-2.999-1H410.715z M415.716,231.337h-2l-3.2-4h8.396L415.716,231.337
		z M419.715,225.336h-10v-2h10V225.336z"/>
	<rect x="476.382" y="235.668" fill="#0098E2" width="18" height="2.001"/>
	<rect x="476.382" y="229.669" fill="#0098E2" width="18" height="2"/>
	<path fill="#0098E2" d="M495.382,221.669h-20c-1.658,0-3,1.343-3,3v5h-3c-1.658,0-3,1.343-3,3v18c0,1.657,1.342,3,3,3h6h4h16
		c1.649,0,3-1.343,3-3v-26C498.382,223.013,497.031,221.669,495.382,221.669z M496.382,250.669c0,0.553-0.449,0.999-1,0.999h-16h-4
		h-6c-0.56,0-1-0.447-1-0.999v-18c0-0.553,0.44-1,1-1h3v18h2v-18v-7c0-0.552,0.44-1,1-1h20c0.551,0,1,0.447,1,1V250.669z"/>
	<path fill="#0098E2" d="M176.715,225.336h-5l-1-2c0,0-0.896-2-2-2h-12c-1.104,0-2,2-2,2l-1,2h-5c-1.104,0-2,0.895-2,2v20
		c0,1.104,0.896,2,2,2h28c1.104,0,2-0.896,2-2v-20C178.715,226.23,177.817,225.336,176.715,225.336z M176.715,246.336
		c0,0.553-0.447,1-1,1h-26c-0.552,0-1-0.447-1-1v-18c0-0.552,0.448-1,1-1h5.001l1.6-2.751c0,0,0.72-1.25,1.604-1.25h9.601
		c0.887,0,1.604,1.25,1.604,1.25l1.6,2.751h5.001c0.554,0,1,0.448,1,1v18H176.715z"/>
	<path fill="#0098E2" d="M162.715,229.336c-4.418,0-8,3.581-8,8s3.582,8,8,8s8-3.582,8-8S167.132,229.336,162.715,229.336z
		 M162.715,243.335c-3.313,0-6-2.688-6-6c0-3.313,2.687-6,6-6c3.312,0,6,2.687,6,6S166.026,243.335,162.715,243.335z"/>
	<path fill="#0098E2" d="M370.18,221.666l-0.023,0.005h-1.438v0.297l-18,3.702v14.744c-1.938-1.154-4.951-1.008-7.667,0.577
		c-3.571,2.084-5.272,5.861-3.802,8.439c1.476,2.578,5.562,2.979,9.136,0.896c2.812-1.644,4.459-4.336,4.312-6.667h0.021v-16.205
		l16-3.395v12.354c-1.938-1.154-4.951-1.008-7.667,0.577c-3.571,2.084-5.272,5.861-3.802,8.439c1.476,2.578,5.562,2.979,9.136,0.896
		c2.812-1.646,4.459-4.337,4.312-6.667h0.021V221.67h-0.532L370.18,221.666z M347.351,248.542c-2.612,1.532-5.463,1.48-6.368-0.107
		c-0.905-1.594,0.479-4.127,3.091-5.66c2.612-1.53,5.463-1.48,6.368,0.109S349.965,247.008,347.351,248.542z M365.351,244.543
		c-2.612,1.532-5.463,1.481-6.368-0.108c-0.905-1.593,0.479-4.125,3.091-5.658c2.612-1.53,5.463-1.481,6.368,0.108
		C369.347,240.478,367.965,243.01,365.351,244.543z"/>
	<path fill="#0098E2" d="M239.381,226.669h-6v-3c0-0.553-0.447-1-1-1h-10c-0.552,0-1,0.448-1,1v3h-6c-2.209,0-4,1.791-4,4v5v2.001
		v11c0,2.209,1.791,4,4,4h24c2.209,0,4-1.791,4-4v-11v-2.001v-5C243.381,228.46,241.59,226.669,239.381,226.669z M223.381,225.67
		c0-0.553,0.448-1.001,1-1.001h6c0.553,0,1,0.448,1,1.001v0.999h-1h-6h-1V225.67z M241.381,248.669c0,1.104-0.896,2-2,2h-24
		c-1.104,0-2-0.896-2-2v-11h9v6h10v-6h9V248.669z M224.381,241.669v-4h6v4H224.381z M241.381,235.668h-9h-10h-9v-5
		c0-1.104,0.896-2,2-2h24c1.104,0,2,0.896,2,2V235.668z"/>
	<path fill="#0098E2" d="M296.048,221.668c-3.865,0-7,4.027-7,9c0,4.533,2.606,8.271,6,8.896v14.104h2v-14.104
		c3.392-0.625,6-4.363,6-8.896C303.048,225.697,299.914,221.668,296.048,221.668z M296.048,237.668c-2.761,0-5-3.133-5-7
		c0-3.865,2.239-7,5-7c2.762,0,5,3.134,5,7C301.048,234.535,298.808,237.668,296.048,237.668z"/>
	<path fill="#EA3647" d="M259.836,42.149c-2.337-7.229-9.114-12.463-17.123-12.463c-8.695,0-15.95,6.166-17.632,14.365
		c-8.2,1.68-14.368,8.938-14.368,17.636c0,9.941,8.06,17.999,18,17.999c0.677,0,1.344-0.041,2-0.111v0.111h24v-0.052
		c0.333,0.018,0.663,0.052,1,0.052c10.493,0,19-8.507,19-19C274.713,51.61,268.344,44.035,259.836,42.149z M256.714,75.636v0.05h-2
		h-26c-7.731,0-14-6.268-14-13.999s6.269-14,14-14c0-7.732,6.269-14.001,14-14.001c7.062,0,12.894,5.239,13.848,12.042
		c7.893,0.442,14.152,6.959,14.152,14.958C270.714,68.632,264.527,75.119,256.714,75.636z"/>
	<path fill="#333333" d="M291.179,349.338h-14.823c-0.877,0-1.588,0.739-1.588,1.653v28.688c0,0.914,0.711,1.654,1.588,1.654h14.823
		c0.877,0,1.588-0.74,1.588-1.654v-28.688C292.768,350.079,292.057,349.338,291.179,349.338z M283.768,379.338c-0.585,0-1-0.396-1-1
		c0-0.607,0.415-1,1-1s1,0.393,1,1C284.768,378.944,284.353,379.338,283.768,379.338z M290.768,375.338h-14v-22h14V375.338z"/>
	<path fill="#333333" d="M800.368,360.886l8.541,8.541c0.562,0.562,0.562,1.477,0,2.039c-0.562,0.562-1.477,0.562-2.038,0
		l-8.541-8.541l-8.541,8.541c-0.562,0.562-1.478,0.562-2.039,0c-0.562-0.562-0.562-1.479,0-2.039l8.541-8.541l-8.541-8.539
		c-0.562-0.562-0.562-1.479,0-2.039c0.562-0.562,1.479-0.562,2.039,0l8.541,8.539l8.541-8.539c0.562-0.562,1.479-0.562,2.038,0
		c0.562,0.562,0.562,1.479,0,2.039L800.368,360.886z"/>
	<path fill="#FFFFFF" d="M33.833,419.911c-0.145,0.142-0.312,0.211-0.49,0.248l-3.752,3.75c-0.396,0.394-1.022,0.394-1.414,0
		c-0.396-0.39-0.396-1.021,0-1.414l2.414-2.414H20.005c-0.559,0-1-0.444-1-1c0-0.552,0.441-1,1-1h10.586l-2.414-2.414
		c-0.396-0.392-0.396-1.021,0-1.413c0.392-0.393,1.021-0.393,1.414,0l3.748,3.747c0.183,0.041,0.354,0.11,0.494,0.253
		c0.229,0.229,0.307,0.532,0.27,0.827C34.14,419.378,34.062,419.682,33.833,419.911z"/>
	<path fill="#B9B9B9" d="M98.083,419.827c-0.145,0.142-0.312,0.211-0.49,0.25l-3.752,3.75c-0.396,0.396-1.022,0.396-1.414,0
		c-0.396-0.392-0.396-1.021,0-1.414l2.414-2.414H84.255c-0.559,0-1-0.444-1-1c0-0.554,0.441-1,1-1h10.586l-2.414-2.413
		c-0.396-0.393-0.396-1.021,0-1.414c0.392-0.393,1.021-0.393,1.414,0l3.748,3.748c0.183,0.038,0.354,0.109,0.494,0.252
		c0.229,0.229,0.307,0.532,0.271,0.827C98.39,419.294,98.312,419.6,98.083,419.827z"/>
	<path fill="#B9B9B9" d="M147.18,419.081c-0.037-0.295,0.041-0.603,0.271-0.827c0.144-0.143,0.312-0.211,0.493-0.252l3.748-3.748
		c0.396-0.393,1.022-0.393,1.414,0c0.395,0.395,0.395,1.021,0,1.414l-2.414,2.413h10.586c0.557,0,1,0.448,1,1c0,0.558-0.443,1-1,1
		h-10.586l2.414,2.414c0.395,0.396,0.395,1.024,0,1.414c-0.392,0.396-1.021,0.396-1.414,0l-3.752-3.75
		c-0.179-0.037-0.353-0.104-0.489-0.248C147.221,419.682,147.143,419.378,147.18,419.081z"/>
	<g>
		<path fill="#EA3647" d="M589.871,70.65h-53.8c-2.812,0-5.104-2.288-5.104-5.1V34.773c0-2.811,2.287-5.1,5.104-5.1h53.8
			c2.812,0,5.099,2.289,5.099,5.1V65.55C594.97,68.362,592.683,70.65,589.871,70.65z M536.073,32.716
			c-1.137,0-2.061,0.923-2.061,2.058v30.777c0,1.134,0.922,2.058,2.061,2.058h53.8c1.134,0,2.058-0.923,2.058-2.058V34.773
			c0-1.134-0.922-2.058-2.058-2.058L536.073,32.716L536.073,32.716z"/>
		<path fill="#EA3647" d="M550.457,56.209c-0.437,0-0.821-0.261-0.991-0.662l-2.496-6.001l-2.5,6.001
			c-0.166,0.401-0.553,0.662-0.988,0.662c-0.016,0-0.037,0-0.053-0.002c-0.453-0.023-0.844-0.329-0.978-0.763l-2.524-8.381
			c-0.174-0.563,0.146-1.166,0.713-1.339c0.102-0.032,0.207-0.047,0.313-0.047c0.476,0,0.888,0.306,1.024,0.76l1.66,5.518
			l0.486-1.174l0.204-0.498l1.632-3.914c0.105-0.279,0.325-0.5,0.59-0.612c0.104-0.042,0.209-0.066,0.332-0.076
			c0.037-0.004,0.059-0.005,0.08-0.006c0.023,0,0.045,0.002,0.068,0.005c0.139,0.011,0.244,0.036,0.346,0.078
			c0.268,0.111,0.48,0.332,0.588,0.604l1.735,4.172l0.103,0.248l0.49,1.175l1.666-5.519c0.141-0.454,0.553-0.76,1.025-0.76
			c0.107,0,0.213,0.015,0.314,0.047c0.565,0.173,0.885,0.775,0.713,1.34l-2.533,8.38c-0.133,0.434-0.521,0.739-0.975,0.763
			C550.49,56.208,550.476,56.209,550.457,56.209z"/>
		<path fill="#EA3647" d="M566.429,56.209c-0.438,0-0.822-0.261-0.992-0.662l-2.498-6.001l-2.496,6.001
			c-0.172,0.401-0.557,0.662-0.992,0.662c-0.018,0-0.033,0-0.053-0.002c-0.449-0.023-0.842-0.329-0.975-0.763l-2.529-8.381
			c-0.17-0.563,0.148-1.166,0.713-1.339c0.107-0.032,0.209-0.047,0.316-0.047c0.477,0,0.887,0.306,1.025,0.76l1.66,5.518
			l0.488-1.174l0.203-0.498l1.631-3.914c0.108-0.279,0.322-0.5,0.59-0.612c0.104-0.042,0.211-0.066,0.332-0.076
			c0.037-0.004,0.06-0.005,0.078-0.006c0.021,0,0.047,0.002,0.074,0.005c0.135,0.011,0.236,0.036,0.342,0.078
			c0.266,0.111,0.48,0.332,0.588,0.604l1.74,4.179l0.1,0.243l0.484,1.174l1.668-5.519c0.141-0.454,0.553-0.76,1.025-0.76
			c0.109,0,0.211,0.015,0.314,0.047c0.568,0.173,0.887,0.775,0.713,1.34l-2.531,8.38c-0.135,0.434-0.521,0.739-0.977,0.763
			C566.464,56.208,566.445,56.209,566.429,56.209z"/>
		<path fill="#EA3647" d="M582.412,56.209c-0.437,0-0.823-0.261-0.989-0.662l-2.5-6.001l-2.496,6.001
			c-0.17,0.401-0.558,0.662-0.99,0.662c-0.02,0-0.037,0-0.055-0.002c-0.449-0.023-0.845-0.329-0.977-0.763l-2.527-8.381
			c-0.17-0.563,0.146-1.166,0.713-1.339c0.105-0.032,0.211-0.047,0.312-0.047c0.479,0,0.891,0.306,1.029,0.76l1.66,5.518
			l0.487-1.174l0.202-0.498l1.632-3.914c0.106-0.279,0.319-0.5,0.591-0.612c0.1-0.042,0.207-0.066,0.33-0.076
			c0.036-0.004,0.057-0.005,0.08-0.006c0.021,0,0.047,0.002,0.068,0.005c0.138,0.011,0.244,0.036,0.343,0.078
			c0.271,0.111,0.483,0.332,0.589,0.604l1.743,4.188l0.099,0.231l0.483,1.175l1.67-5.519c0.14-0.454,0.552-0.761,1.024-0.761
			c0.109,0,0.213,0.016,0.314,0.047c0.564,0.173,0.887,0.775,0.713,1.34l-2.529,8.38c-0.135,0.435-0.521,0.739-0.977,0.764
			C582.448,56.208,582.431,56.209,582.412,56.209z"/>
	</g>
	<g>
		<path fill="#98BD50" d="M657.224,45.665c-0.26-0.073-0.521-0.083-0.771-0.044H613.71l-3.151-13.52
			c0.038-0.153,0.062-0.312,0.062-0.477c0-1.021-0.765-1.854-1.757-1.976c-0.193-0.042-0.397-0.05-0.604-0.021h-11.626
			c-1.104,0-2.003,0.894-2.003,1.999c0,1.104,0.895,2,2.003,2h10.381l9.912,42.535c0.267,1.061,1.305,1.689,2.318,1.404
			c0.158-0.045,0.306-0.114,0.441-0.195c0.275,0.147,0.593,0.239,0.93,0.239h27.622c0.208,0.027,0.409,0.021,0.606-0.023
			c0.986-0.122,1.757-0.952,1.757-1.973c0-0.122-0.019-0.241-0.034-0.358l7.996-27.15C658.835,47.042,658.235,45.948,657.224,45.665
			z M614.64,49.619h39.514l-7.066,23.991h-26.472c-0.13,0-0.256,0.017-0.378,0.039L614.64,49.619z"/>
		<circle fill="#98BD50" cx="642.605" cy="85.608" r="3.999"/>
		<circle fill="#98BD50" cx="622.615" cy="85.608" r="3.999"/>
	</g>
</g>
<g>
	<g>
		<path fill="#0098E2" d="M667.098,61.335h28v-4.003h-28V61.335z M699.098,53.333h16v-16h-16V53.333z M703.098,41.333h8v8.002h-8
			V41.333z M719.098,29.334h-56c-2.209,0-4,1.791-4,4v44c0,2.208,1.791,4.001,4,4.001h56c2.209,0,4-1.793,4-4.001v-44
			C723.098,31.125,721.307,29.334,719.098,29.334z M719.098,75.333c0,1.104-0.896,2.001-2,2.001h-52c-1.104,0-2-0.896-2-2.001
			V35.334c0-1.104,0.896-2,2-2h52c1.104,0,2,0.896,2,2V75.333z M667.098,69.335h28v-4.002h-28V69.335z"/>
	</g>
</g>
<path fill="#FFFFFF" d="M64.896,516.954c0.888,0.889,1.438,2.116,1.438,3.472c0,2.711-2.198,4.909-4.909,4.909
	c-1.356,0-2.583-0.55-3.472-1.438l0,0l-10.023-10.023c-2.923,1.727-6.32,2.734-9.959,2.734c-10.845,0-19.637-8.791-19.637-19.637
	c0-10.844,8.792-19.637,19.637-19.637s19.636,8.793,19.636,19.637c0,3.641-1.008,7.037-2.734,9.96L64.896,516.954L64.896,516.954z
	 M37.97,482.244c-8.134,0-14.728,6.593-14.728,14.727s6.594,14.728,14.728,14.728c8.133,0,14.727-6.594,14.727-14.728
	S46.103,482.244,37.97,482.244z"/>
<path fill-rule="evenodd" clip-rule="evenodd" fill="#FFFFFF" d="M130.833,501.867c0,0.663-0.287,1.26-0.745,1.672l0,0l-7.5,6.748
	l0,0c-0.398,0.359-0.926,0.578-1.505,0.578c-1.242,0-2.25-1.008-2.25-2.25c0-0.664,0.288-1.26,0.745-1.672l0,0l3.255-3.077h-14
	v13.997l3.078-3.254l0,0c0.411-0.457,1.008-0.745,1.672-0.745c1.242,0,2.25,1.007,2.25,2.25c0,0.579-0.219,1.106-0.578,1.505h0.001
	l-6.75,7.498h-0.001c-0.412,0.457-1.008,0.745-1.672,0.745s-1.26-0.288-1.672-0.745l0,0l-6.75-7.498l0,0
	c-0.359-0.398-0.578-0.926-0.578-1.505c0-1.243,1.007-2.25,2.25-2.25c0.664,0,1.261,0.288,1.672,0.745l0,0l3.078,3.254v-13.997h-14
	l3.255,3.077h0c0.458,0.412,0.745,1.008,0.745,1.672c0,1.242-1.007,2.25-2.25,2.25c-0.579,0-1.106-0.219-1.505-0.578l0,0l-7.5-6.748
	l0,0c-0.458-0.412-0.745-1.009-0.745-1.672c0-0.664,0.288-1.261,0.745-1.673l0,0l7.5-6.749l0,0c0.398-0.358,0.926-0.577,1.505-0.577
	c1.243,0,2.25,1.007,2.25,2.249c0,0.664-0.288,1.261-0.745,1.672l0,0.001l-3.255,3.077h14v-13.998l-3.078,3.255v-0.001
	c-0.412,0.458-1.008,0.746-1.672,0.746c-1.243,0-2.25-1.008-2.25-2.25c0-0.578,0.219-1.106,0.578-1.505l0,0l6.75-7.499l0,0
	c0.412-0.457,1.008-0.745,1.672-0.745s1.26,0.288,1.672,0.745h0.001l6.75,7.499h-0.001c0.359,0.398,0.578,0.927,0.578,1.505
	c0,1.242-1.008,2.25-2.25,2.25c-0.664,0-1.261-0.288-1.672-0.746v0.001l-3.078-3.255v13.998h14l-3-3l-0.255-0.078
	c-0.457-0.411-0.745-1.008-0.745-1.672c0-1.242,1.008-2.249,2.25-2.249c0.579,0,1.106,0.219,1.505,0.577l0,0l7.5,6.749l0,0
	C130.546,500.607,130.833,501.203,130.833,501.867z"/>
<path fill="#FFFFFF" d="M166.125,525.657c0,0,2.188-2.228,1.8-7.166c7.465-5.288,12.343-11.495,12.343-11.495
	s4.278,4.896,0.681,10.02C174.79,525.789,166.125,525.657,166.125,525.657z M154.186,512.371c0,0,4.411-13.643,7.663-18.275
	c1.463-2.084,2.995-3.771,4.536-5.192l15.61,11.298c-0.82,1.946-1.89,3.97-3.352,6.053c-3.203,4.562-14.504,13.322-14.504,13.322
	L154.186,512.371z M172.394,497.102c-1.756-1.271-4.194-0.856-5.446,0.927c-1.251,1.783-0.843,4.259,0.914,5.53
	c1.756,1.271,4.194,0.855,5.446-0.928C174.559,500.848,174.151,498.372,172.394,497.102z M181.833,482.186l3.086-4.396l1.237,0.896
	l-3.008,4.284c0.681,2.069,2.176,8.166-0.592,15.826l-15.05-10.893C173.553,482.885,179.506,482.232,181.833,482.186z
	 M147.876,512.449c0,0-2.948-8.273,3.211-17.047c3.597-5.123,9.549-2.615,9.549-2.615s-4.187,6.708-6.675,15.598
	C149.236,509.623,147.876,512.449,147.876,512.449z M158.639,521.217l-0.298-1.803l-3.569,2.708l1.15-4.46l-2.18,1.175l1.003-4.249
	l7.119,5.152L158.639,521.217z"/>
</svg>
